<?xml version="1.0" encoding="utf-8"?>
<!-- Generator: Adobe Illustrator 22.1.0, SVG Export Plug-In . SVG Version: 6.00 Build 0)  -->
<svg version="1.1" id="Capa_1" xmlns="http://www.w3.org/2000/svg" xmlns:xlink="http://www.w3.org/1999/xlink" x="0px" y="0px"
	 viewBox="0 0 35 35" style="enable-background:new 0 0 35 35;" xml:space="preserve">
<style type="text/css">
	.st0{fill:#F9F9F9;}
	.st1{fill:none;stroke:#E2E5E6;stroke-miterlimit:10;}
	.st2{fill:#FFFFFF;stroke:#E2E5E6;stroke-width:0.995;stroke-miterlimit:10;}
	.st3{fill:#FFFFFF;stroke:#E2E5E6;stroke-miterlimit:10;}
	.st4{fill:none;stroke:#E7212E;stroke-width:2;stroke-linecap:round;stroke-linejoin:round;stroke-miterlimit:10;}
	.st5{fill:none;stroke:#6A727B;stroke-width:2;stroke-linecap:round;stroke-linejoin:round;stroke-miterlimit:10;}
	.st6{fill:#E7212E;}
	.st7{fill:#FFFFFF;}
	.st8{fill:none;stroke:#EEF0F2;stroke-miterlimit:10;}
	.st9{fill:#1B58A8;}
	.st10{fill:none;stroke:#FFFFFF;stroke-linecap:round;stroke-linejoin:round;stroke-miterlimit:10;}
	.st11{fill:#EFF1F3;}
	.st12{fill:#394047;}
	.st13{fill:#FFFFFF;stroke:#EEF0F2;stroke-miterlimit:10;}
	.st14{fill:#6C717A;}
	.st15{fill:#FFFFFF;stroke:#EEF0F2;stroke-width:0.9973;stroke-miterlimit:10;}
	.st16{fill:none;stroke:#FFFFFF;stroke-width:1.34;stroke-linecap:round;stroke-linejoin:round;stroke-miterlimit:10;}
	.st17{opacity:0.3;}
	.st18{opacity:0.3;fill:#6C717A;}
	.st19{clip-path:url(#SVGID_2_);}
	.st20{fill:none;stroke:#E7212E;stroke-width:3.1563;stroke-linecap:round;stroke-linejoin:round;stroke-miterlimit:10;}
	.st21{fill:#C20016;}
	.st22{fill:#2873D5;}
	.st23{clip-path:url(#SVGID_4_);}
	.st24{fill:#FFFFFF;stroke:#EEF0F2;stroke-width:0.9951;stroke-miterlimit:10;}
	.st25{clip-path:url(#SVGID_6_);}
	.st26{fill:#FFFFFF;stroke:#EEF0F2;stroke-width:1.0379;stroke-miterlimit:10;}
	.st27{fill:#E2E5E6;}
	.st28{fill:#6A727B;}
	.st29{clip-path:url(#SVGID_8_);}
	.st30{clip-path:url(#SVGID_10_);}
	.st31{fill:none;stroke:#FFFFFF;stroke-width:0.8;stroke-linecap:round;stroke-linejoin:round;stroke-miterlimit:10;}
	.st32{clip-path:url(#SVGID_12_);}
	.st33{fill:#FFFFFF;stroke:#EEF0F2;stroke-width:0.9939;stroke-miterlimit:10;}
	.st34{fill:none;stroke:#E1E3E4;stroke-width:3;stroke-linecap:round;stroke-linejoin:round;stroke-miterlimit:10;}
	.st35{fill:none;stroke:#E1E3E4;stroke-width:3;stroke-miterlimit:10;}
	.st36{clip-path:url(#SVGID_14_);}
	.st37{fill:none;stroke:#E1E3E4;stroke-width:2.6812;stroke-linecap:round;stroke-linejoin:round;stroke-miterlimit:10;}
	.st38{clip-path:url(#SVGID_16_);}
	.st39{clip-path:url(#SVGID_18_);}
	.st40{clip-path:url(#SVGID_20_);}
	.st41{clip-path:url(#SVGID_22_);}
	.st42{clip-path:url(#SVGID_24_);}
	.st43{fill:#FFFFFF;stroke:#E2E5E6;stroke-width:1.0005;stroke-miterlimit:10;}
	.st44{fill:none;stroke:#E7212E;stroke-width:1.8848;stroke-linecap:round;stroke-linejoin:round;stroke-miterlimit:10;}
	.st45{clip-path:url(#SVGID_28_);}
	.st46{fill:none;stroke:#FFFFFF;stroke-width:1.2704;stroke-linecap:round;stroke-linejoin:round;stroke-miterlimit:10;}
	.st47{fill:none;stroke:#FFFFFF;stroke-width:1.2185;stroke-linecap:round;stroke-linejoin:round;stroke-miterlimit:10;}
	.st48{clip-path:url(#SVGID_30_);}
	.st49{fill:none;stroke:#C20016;stroke-width:2;stroke-linecap:round;stroke-linejoin:round;stroke-miterlimit:10;}
</style>
<g>
	<g>
		<circle class="st9" cx="17.5" cy="17.5" r="17.5"/>
	</g>
	<g>
		<path class="st10" d="M29.8,14.9h-0.2c-0.2,0-0.3,0-0.5,0.1c-0.8-3.5-3.8-6.1-7.2-6.1h-9c-3.5,0-6.4,2.6-7.2,6.1
			c-0.2-0.1-0.3-0.1-0.5-0.1H4.9c-0.8,0-1.5,0.7-1.5,1.7v1.6c0,0.9,0.7,1.7,1.5,1.7h0.2c0.1,0,0.3,0,0.4-0.1
			c0.7,3.7,3.7,6.5,7.3,6.5h9c3.6,0,6.6-2.8,7.3-6.5c0.1,0,0.3,0.1,0.4,0.1h0.2c0.8,0,1.5-0.7,1.5-1.7v-1.6
			C31.3,15.6,30.6,14.9,29.8,14.9z"/>
		<path class="st10" d="M22.1,12.6h-9.3c-2.4,0-4.3,1.8-4.3,4.1v1.5c0,2.2,1.9,4.1,4.3,4.1h0.9V24l2.5-1.8h5.9
			c2.4,0,4.3-1.8,4.3-4.1v-1.5C26.3,14.4,24.4,12.6,22.1,12.6z"/>
		<circle class="st10" cx="12.8" cy="17.3" r="1.5"/>
		<circle class="st10" cx="22" cy="17.3" r="1.5"/>
	</g>
</g>
</svg>
